/* XPM */
static char *e0bc75a6c95f4c0cf28d87e5178e6c25Wzvj5e0HnVnqOHWg[] = {
/* columns rows colors chars-per-pixel */
"32 32 72 1 ",
"  c #55770E",
". c #587B0F",
"X c #60770F",
"o c #737315",
"O c #E93F1F",
"+ c #F53A21",
"@ c #DE441D",
"# c #F6523C",
"$ c #F65E4A",
"% c #E56443",
"& c #EA6146",
"* c #F77261",
"= c #3D850B",
"- c #3F880C",
"; c #40870C",
": c #438B0D",
"> c #5F850F",
", c #46910D",
"< c #4A960C",
"1 c #4D9B0D",
"2 c #509E0E",
"3 c #458E10",
"4 c #488D1A",
"5 c #5F8112",
"6 c #479010",
"7 c #4B9510",
"8 c #4E9A11",
"9 c #519D12",
"0 c #539D19",
"q c #628C0E",
"w c #668C13",
"e c #6C8A13",
"r c #6C9312",
"t c #709014",
"y c #4FA10D",
"u c #52A30E",
"i c #4FA010",
"p c #53A011",
"a c #52A012",
"s c #53A612",
"d c #54A410",
"f c #54A610",
"g c #55A710",
"h c #52A015",
"j c #55A316",
"k c #54A714",
"l c #56A615",
"z c #57AB11",
"x c #54A813",
"c c #55A814",
"v c #57AB15",
"b c #5BAC12",
"n c #58AA15",
"m c #5AAC14",
"M c #5CAA1D",
"N c #559328",
"B c #60A42A",
"V c #64B324",
"C c #D3E6C3",
"Z c #D4E8C5",
"A c #DBE9D1",
"S c #DCEAD1",
"D c #DEEDD1",
"F c #DEECD3",
"G c #E4EEDD",
"H c #E7F1DE",
"J c #FDE6E3",
"K c #FDEAE8",
"L c #E7F1E0",
"P c #F3F8EE",
"I c #FAFCF9",
"U c white",
/* pixels */
"1a:82a812k:6us811a:<2s811<s<<8s1",
"s-113::xl:196;:xu;173:3a:s:9d::9",
"8:k==ac1<:k;=9ZP&Or:=9u<<1:u2n8:",
"<x198<:89s221<SU$+e89<:hs:ks879<",
"19sd9:,11asu8=SU$+ta9=,822191:78",
"u:;88xy,a6:82xDU$+X81xu:7:u=<s:s",
"1d1:u::81ny:CLIUKJ%@q::as:u,;x,8",
"9:<k28k11,<jHUUUUU$+r8u118:a92s1",
"19<hu6k119<dHUUUUU$+ra1u91as2<c1",
"1:x;,u;k2,n;GUUUUU$+q;:a:s38c<:a",
"a:s<=x:9k:s<GUUUUU$+ 9x111:uucs-",
"9:=881112,:bHUUUUU$+w<:9a:899:87",
"19:9u8,199:9HUUUUU$+w;1211889:,2",
":1cuu:8<:1kuHUUUUU$+qsy:<,s:<a:s",
"a--s9:s:8-:cHUUUUU$+q::as:u:;x:7",
"8xh<<x19u809HUUUUU$+w0i11a:1d2s1",
"9bm<<9jua1M9GUUUUU$+wM9<<k6<uu18",
";x<8m6-1:a:8HUUUUU$+w;x:8-,x86s=",
"11;9uc8;<1=aHUUUUU$+r=1137ays:<<",
"1,9s1-891:8dHUUUUU$+r9:187:8s7,8",
"<u189=:11111HUUUUU$+w7112<=88111",
"8:s=<i:ca:s:HUUUUU$+.s:9k:s<-s,7",
"u:u,-c:9c:u,GUUUUU$+qu:s9:c-<u:s",
"1j:1a<u11j:8HUUUUU$+w:9:1s<98:91",
"<s<191-11u71GUUUUU$+q<s11:<a<<s1",
"9:,1:1k18:<1GUUUUU$+q,:81s8:1,;8",
";ys18=:s:us8BNSU*#ow9sy:a:-98xu-",
"9<=8as119,=9usDU$+t99;,912au8-<8",
"9=<882x19;<111DU$+e18<-81mu181-8",
"1ca==x:81ns=:sAU$+t;:ax277x;=as1",
"s:-,18-xx,:3914VM 28,:,mn:913::x",
"11x87:u118su7:y119:<9s8118:62s11"
};
