/* XPM */
static char *d034ff39abf242148a12d3f2efd474e1uduEuqMScfkbxUJp[] = {
/* columns rows colors chars-per-pixel */
"32 32 85 1 ",
"  c #517D0E",
". c #776A12",
"X c #796D12",
"o c #7E7414",
"O c #7F7E12",
"+ c #EC3E1F",
"@ c #F53A21",
"# c #8A6714",
"$ c #816812",
"% c #847B14",
"& c #8E7B15",
"* c #857918",
"= c #E2421E",
"- c #F54023",
"; c #F75D30",
": c #F85F31",
"> c #E6652D",
", c #F46431",
"< c #F86236",
"1 c #3D850B",
"2 c #3F880C",
"3 c #40870C",
"4 c #438B0D",
"5 c #46910D",
"6 c #4A960C",
"7 c #4D9B0D",
"8 c #509D0E",
"9 c #458E10",
"0 c #4D8912",
"q c #479010",
"w c #4B9510",
"e c #4E9A11",
"r c #589312",
"t c #519D12",
"y c #539D19",
"u c #4FA10D",
"i c #50A20F",
"p c #52A20E",
"a c #55A60F",
"s c #4FA010",
"d c #52A012",
"f c #54A310",
"g c #53A612",
"h c #55A710",
"j c #53A214",
"k c #55A316",
"l c #56A514",
"z c #54A714",
"x c #57A714",
"c c #55A911",
"v c #54A813",
"b c #57AB12",
"n c #56A915",
"m c #5BAC12",
"M c #58AA15",
"N c #5EA814",
"B c #58AC14",
"V c #5CAA1D",
"C c #69A315",
"Z c #69A917",
"A c #888216",
"S c #888118",
"D c #AB9631",
"F c #B79734",
"G c #B69635",
"H c #B89934",
"J c #BB9B36",
"K c #BEA337",
"L c #C09738",
"P c #C09739",
"I c #C29A39",
"U c #C59D39",
"Y c #C59D3B",
"T c #C8A03A",
"R c #EA9F47",
"E c #F29F4A",
"W c #FC984B",
"Q c #FD9F4E",
"! c #C7A441",
"~ c #FDA559",
"^ c #F88373",
"/ c #C7DFAB",
"( c #C7DEB3",
") c #FEF9F3",
"_ c white",
/* pixels */
"7d4etge67l4w8gt77e478xe776g74tM7",
"g277534vl47e440ZC 8w934g4g4ev41t",
"e4z11dn7e9x31tJQ:@&31ef6674atM73",
"6v7te64t6x8t86HQ:@&tt64tk4zge6t7",
"7tait2587fgp72HQ:@&it16t777t74ee",
"a43eevi4i947tNLW;@#r8x7964b36d3g",
"6x74i44e7Mf3YQ:@@@@@%44pn4i53v5e",
"746z8en7757gYQ:@@@@@%6x67e4it8v7",
"7g6ti6k77i6tYQ<@@@@@Ade7t7thiwv7",
"e4M35u4zt4M3IQ:@@@@@o34d4t9wBw4t",
"v3t62v4tn4g6LQ:@@@@@.dz7773ping2",
"t51ee777854mYQ:@@@@@%64jf4ezt47w",
"6t4tg65eei4tTQ:@@@@@%26777eet4q8",
"47nud47647gi!~<@@@@@%hu564g46i3b",
"s24zt4g4e34n(_^@@@@@%44dg4i51x47",
"ent66b7tityt(_^@@@@@%td77d47t8g7",
"tmM66dg8t7Vw(_^@@@@@*Vt66g46adu7",
"3n6tBq3e3M4t/)^@@@@@%2n4e29neqg1",
"773tin73761pUQ:@@@@@A2774wsud466",
"747g74et75epUQ:@@@@@Ae47ee4ege4e",
"7u7tt157687tYQ:@@@@@*7778q2ee776",
"e4a16t2nt4v1YQ:@@@@@Xb4tv4g62n4e",
"x4u54z4tx4i5JQ:@@@@@ou4nt5n16i4i",
"7k47t6p77z47TQ:@@@@@%5e57d6k65d7",
"6g67t6567v67YQ<@@@@@%ez7746t76v6",
"e4574eg7e457HE,@@@++O44e7g74744t",
"4iv7e14g4ive71GQ:@$t7zu4p44w7vi3",
"751eig77851tfxJQ:@&ie35877gz736e",
"e26787v7t16te7KQ:@&7e64t7Bd7e63k",
"7nd11z4t7Bd14zDR>=&34dg8wwn41dn6",
"v42q6e1nz54qeu2bz27e545Bn4e7424v",
"7end63d77egt64j67t2e7ge77t46tg77"
};
