/* XPM */
static char *f8b8df756f124ba9e3b73b12927553b2dgPE853iz0IU2OhN[] = {
/* columns rows colors chars-per-pixel */
"32 32 101 2 ",
"   c #252D1D",
".  c #202020",
"X  c #2C2320",
"o  c #2D2B29",
"O  c #382720",
"+  c #303327",
"@  c #3A3632",
"#  c #2F5316",
"$  c #315616",
"%  c #345B15",
"&  c #335518",
"*  c #375D19",
"=  c #3E7D0F",
"-  c #396017",
";  c #3D6D17",
":  c #396219",
">  c #395820",
",  c #4D6D2A",
"<  c #7C6E61",
"1  c #813C22",
"2  c #8D3F22",
"3  c #8E6D17",
"4  c #976E18",
"5  c #887515",
"6  c #8E7D15",
"7  c #927217",
"8  c #927F17",
"9  c #937319",
"0  c #9D7619",
"q  c #947C19",
"w  c #997C1A",
"e  c #A1761A",
"r  c #A1791B",
"t  c #844421",
"y  c #C95123",
"u  c #CD5F20",
"i  c #D55423",
"p  c #D45C21",
"a  c #D85D22",
"s  c #E25824",
"d  c #E35F2D",
"f  c #CF6121",
"g  c #D06321",
"h  c #E46736",
"j  c #887261",
"k  c #897A6B",
"l  c #3E850C",
"z  c #3E880D",
"x  c #40870C",
"c  c #438C0D",
"v  c #4D880D",
"b  c #54820C",
"n  c #5A8C0E",
"m  c #46910D",
"M  c #4A960C",
"N  c #4D9A0D",
"B  c #54920C",
"V  c #509E0F",
"C  c #589D0F",
"Z  c #418112",
"A  c #458E10",
"S  c #568511",
"D  c #598810",
"F  c #479010",
"G  c #4B9611",
"H  c #4E9A11",
"J  c #519D13",
"K  c #60970C",
"L  c #649614",
"P  c #649C13",
"I  c #4FA10E",
"U  c #51A30E",
"Y  c #4FA010",
"T  c #53A412",
"R  c #54A812",
"E  c #57AB12",
"W  c #55A914",
"Q  c #56AA14",
"!  c #57AA15",
"~  c #538F20",
"^  c #69AF25",
"/  c #6BB226",
"(  c #8E8116",
")  c #8F8119",
"_  c #92851A",
"`  c #9C801C",
"'  c #9C811C",
"]  c #A9AC5C",
"[  c #ABB05C",
"{  c #8C8269",
"}  c #968574",
"|  c #9FB760",
" . c #A0B860",
".. c #D18763",
"X. c #E98E63",
"o. c #EA966D",
"O. c #D8BDA3",
"+. c #E5C8AC",
"@. c #F0C4A3",
"#. c #F1CCAC",
"$. c #F3D4B6",
/* pixels */
"N T F H N T G N M W c H 8 p p u p g p p 8 W G N H M T M M H T N ",
"T l N N F c c R W c H N 7 s s s s s s a 9 z A T c T c V E c l J ",
"H c W l l T W N G F _ u a s s s s s s s a p _ m N N z T V W U c ",
"M R N H H M c H G W w s s s s s s s s s s s 7 J T c W T H M J G ",
"M J U T J l m J 6 p p s s s s s s s s s s s a p ( N N J J x H N ",
"U m x H H R I m w s s s s s s s s s s s s s s s w c T l M T c T ",
"V T N c I c 5 f i s s s s s s s s s s s s s s s a u ( m x E c H ",
"V c M W N H ` s s s s s s s s s s s s s s s s s s s 9 J H V E N ",
"N U M J ) u t O O O 2 s s s s s s s s s s s 2 O O O 1 u 8 G E N ",
"H c W c 7 s 1   . . 1 s s s s s s s s s s s 1 . .   1 s ` G c H ",
"! x ) u a s i y ..O.j O 2 s s s s s s s 2 O j O...y i s a f _ c ",
"V c 3 s s s s s o.$.k . 1 s s s s s s s 1 . k $.o.s s s s s q G ",
"G J 7 s s s s s o.$.k . X O O O O O O O   . k $.o.s s s s s 9 V ",
"c N ` s s s s s o.$.k . . . . . . . . . . . k $.o.s s s s s 4 T ",
"q u a s s s s s o.$.k . < O...y y y ..O.< . k $.o.s s s s s a u ",
"e s s s s s s s o.$.k . k $.o.s s s o.$.k . k $.o.s s s s s s s ",
"r s s s s s s s o.$.+.O.+.$.o.s s s o.$.+.O.+.$.o.s s s s s s s ",
"4 s s s s s s s o.$.$.$.$.$.o.s s s o.$.$.$.$.$.o.s s s s s s s ",
"0 s s s s s s s d h h h h h d s s s d h h h h h d s s s s s s s ",
"0 s s s s s s s s s s s s s s s s s s s s s s s s s s s s s s s ",
"B C e s s s s s s s X.@.@.@.@.@.@.@.@.@.@.@.X.s s s s s s s e D ",
"H c 0 s s s s s s s o.$.$.$.$.$.$.$.$.$.$.$.o.s s s s s s s 4 H ",
"R c C D b P D L [ @.#.$.$.$.$.$.$.$.$.$.$.$.#.@.] D P b n L v T ",
"N T c J T M T N  .$.$.$.$.$.$.$.$.$.$.$.$.$.$.$. .T M T N c T N ",
"M T N M ;       k $.$.$.$.$.$.$.$.$.$.$.$.$.$.$.| c N J M M T N ",
"J x c N $ . .   k $.$.$.$.$.$.$.$.$.$.$.$.$.$.$.| W H c N c c J ",
"c U ;     . . . o @ @ @ } $.$.$.$.$.$.$.$.$.} @ +   # H N R I l ",
"J m $ . . . . . . . . . k $.$.$.$.$.$.$.$.$.k . . . : T H c m N ",
"T x % . . . . . . . . . o @ } $.$.$.$.$.} @ o . . . * N J M z J ",
"M ! * . . . . . . . . . . . k $.$.$.$.$.k . . . . . : c l T E M ",
"U x = = $ . . . . . . . . . * / / ~ , @ o . . . * = G H m l c T ",
"V J T J & . . . . . . . . . * N N J $ . . . . . % T c H V T H N "
};
