/* XPM */
static char *f1f6d5f74cca412a86bbfb11cc6944ad0JJBtdIocyHkj8CM[] = {
/* columns rows colors chars-per-pixel */
"32 32 60 1 ",
"  c #20211F",
". c #242E1D",
"X c #26301E",
"o c #202020",
"O c #382720",
"+ c #3A3632",
"@ c #39790E",
"# c #C95123",
"$ c #CD5F20",
"% c #E25824",
"& c #CF6121",
"* c #D06321",
"= c #E46736",
"- c #3D850B",
"; c #3E880D",
": c #40870C",
"> c #438C0D",
", c #55830D",
"< c #58880E",
"1 c #46910C",
"2 c #4A960C",
"3 c #4D9B0D",
"4 c #509E0F",
"5 c #458E10",
"6 c #4A8E10",
"7 c #5B8A12",
"8 c #479010",
"9 c #4C9512",
"0 c #4E9A11",
"q c #5F9111",
"w c #519E12",
"e c #509B14",
"r c #539F15",
"t c #519C16",
"y c #60970C",
"u c #629411",
"i c #649613",
"p c #649C14",
"a c #4FA10E",
"s c #51A30E",
"d c #51A40F",
"f c #54A410",
"g c #54A711",
"h c #54A713",
"j c #55A713",
"k c #53A214",
"l c #54A314",
"z c #54A714",
"x c #57A714",
"c c #57AB12",
"v c #56AA14",
"b c #58AC14",
"n c #61A21E",
"m c #62A322",
"M c #66A526",
"N c #D8BDA3",
"B c #DCCBA0",
"V c #DECEA1",
"C c #F0C4A3",
"Z c #F3D4B6",
/* pixels */
"3k>0wg023z>7%%%%%%%*wc0332s320g3",
"g-338;>cz>0q%%%%%%%&>:5l>g:ez>:w",
"0>z--kz307%%%%%%%%%%%&g223>gwx3>",
"2g3w33:e3p%%%%%%%%%%%&:wl>zg02w3",
"3tfft;1u%%%%%%%%%%%%%%%&333e0>90",
"d1-03ca<%%%%%%%%%%%%%%%&3>z>2g:g",
"3g0>a7%%%%%%%%%%%%%%%%%%%$s>:v10",
"4>2z37%%%%%%%%%%%%%%%%%%%$>se3b3",
"3l2i%#oooO%%%%%%%%%%%#oooO%*w3z3",
"3>z,%# ooO%%%%%%%%%%%#oooO%$b9>w",
"k,%%%%%=ZNoO%%%%%%%#o+ZC%%%%%&l-",
"w<%%%%%=ZNoO%%%%%%%#o+ZC%%%%%$30",
"9i%%%%%=ZNooooooooooo+ZC%%%%%$>w",
":q%%%%%=ZNooooooooooo+ZC%%%%%&:v",
"%%%%%%%=ZNo+ZC%%%=ZNo+ZC%%%%%%%*",
"%%%%%%%=ZNo+ZC%%%=ZNo+ZC%%%%%%%$",
"%%%%%%%=ZZZZZC%%%=ZZZZZC%%%%%%%$",
"%%%%%%%=ZZZZZC%%%=ZZZZZC%%%%%%%$",
"%%%%%%%%%%%%%%%%%%%%%%%%%%%%%%%$",
"%%%%%%%%%%%%%%%%%%%%%%%%%%%%%%%$",
"2y%%%%%%%=ZZZZZZZZZZZC%%%%%%%*32",
"0,%%%%%%%=ZZZZZZZZZZZC%%%%%%%*>0",
"z>s1-v>MZZZZZZZZZZZZZZZVw>b>>s>g",
"3l>3r2gnZZZZZZZZZZZZZZZB3l2z3>r3",
"2g22l3-mZZZZZZZZZZZZZZZNooo.23g2",
"0>13>0gmZZZZZZZZZZZZZZZNooo.3>>0",
">fs09@ooo+ZZZZZZZZZNoooooooooXs>",
"01-wf9ooo+ZZZZZZZZZNooooooooo.13",
"t-33w6ooooo+ZZZZZNooooooooooo.>0",
"3vw--9ooooo+ZZZZZNoooooooooooXv2",
"d>-803;toooooX;xz@ooooooooo.5;5g",
"30z30>w>     .w339       o .4g03"
};
