/* XPM */
static char *result[] = {
/* columns rows colors chars-per-pixel */
"32 32 25 1 ",
"  c #397F09",
". c #3E850B",
"X c #3F880B",
"o c #40870C",
"O c #438C0D",
"+ c #46910D",
"@ c #4A960C",
"# c #4D9B0D",
"$ c #509E0E",
"% c #458E10",
"& c #479010",
"* c #4B9511",
"= c #4E9A11",
"- c #519715",
"; c #519D12",
": c #549C1A",
"> c #4FA10E",
", c #52A30E",
"< c #56AA0F",
"1 c #4FA111",
"2 c #53A412",
"3 c #55A913",
"4 c #59AC14",
"5 c #54A11A",
"6 c #5CAA1D",
/* pixels */
"@2O=;2=#@5O@;3=##;o#$3=@$@3#+=3@",
"3X##%oO33O$#OoO3<.##O.%2O2O;<OX;",
"=O3..13#=&3o.3;#=O2X.2,@@#O,;3#O",
"+3$=;@O=@2;$$+o=#3;=$@o53O5,#@;=",
"@$3,-X+=#;,2=.O;#=23=.+;###;;O*#",
",&o=#3>+1*O$#3,O#XX=#3,O=O3.@2O2",
"#3#O;OO=#4,O#+O=;2=O#oO;3o,Oo3+=",
"$O@3#=3##+@5#@3$@O@2,=3@#=+;;#3#",
"@2@;2+5#@,@;=O2$#=o=$2=#;#=,2@3#",
"=O3o+>O3$&4o+,O34o#=%OO2O2%=3*O;",
"2o2@.<o23O2@.<O;;+3X.23@@#.,$42X",
"$%.=;##@$O+4=>#@@3$#;+O22O=3=o==",
"*2O;,=O;;,O;3;O##=32=.####==2OO$",
"O#32,O#@o#22,.#$2O.@#<>O@O3X@2o3",
"=XX3;O3o=OO3;o3X@:**#Oo23O,O.3O=",
"=32+@3#;,=:=@5;:-%::#:,>@;O#2$2#",
";44@@25$2#6-*:::-5:*-6$@#2+@,,#;",
"O3+=4+o#o,o;3&X22O%2=O2O=X%3=&2.",
"@#o,$3=o##.,=4;oX34=2X#@%*1>2X@@",
"$+=3#o=;#O=3;O;$*=X;2=+#=*O=2*+=",
"@#$;=.%$###;;.O,,% 5=##@=*X==##@",
"=O<.@2.3;O3.@2X33O1+X3O;3O2@X3+=",
"3O>+o3O,3O>+o3O==&4X+,O3;O3X+>O2",
"#5O#2@,@#5O#;#3@@2@2#&=+#2@2#+2@",
"@,*@2@O##3*@2@O2;O@;@#2##O@;@@3@",
";O+#O#2#=O+#+*2@#2=O#OO=#3#O#+O=",
"o,3##.%>O,3#=.O<3O.=#3>+2O.-#3,X",
"#+.=32=##+.-,2=##;,3;.+;##22=X+#",
";X@=##3==O@===3@+3$#=@X-@4,#;@X=",
"@32..3O=$32.O2%=#O3oX23#=*3O.23#",
"3OX%#=.33+O&=>X43X==*O&33O=#+o%2",
"@#3>*X2@#=2>*X=##;O@#2=##=O*,2=@"
};
