/* XPM */
static char *result[] = {
/* columns rows colors chars-per-pixel */
"32 32 91 1 ",
"  c #7D7F16",
". c #EB3E1E",
"X c #EE3D20",
"o c #F53A21",
"O c #A45F17",
"+ c #A95817",
"@ c #956316",
"# c #916817",
"$ c #9A6F16",
"% c #947216",
"& c #987118",
"* c #9A7818",
"= c #A66419",
"- c #AC6519",
"; c #AB6919",
": c #A57D1E",
"> c #A97A1F",
", c #AF7620",
"< c #AB7B20",
"1 c #B07D22",
"2 c #EA401F",
"3 c #C6611F",
"4 c #CB5E20",
"5 c #D45620",
"6 c #D75B23",
"7 c #F54023",
"8 c #CB6121",
"9 c #F86633",
"0 c #F97137",
"q c #F97538",
"w c #3D850B",
"e c #3E880D",
"r c #41870C",
"t c #4B830C",
"y c #428B0D",
"u c #4D8C0E",
"i c #46910C",
"p c #4A960C",
"a c #4D9B0D",
"s c #54930E",
"d c #5A970F",
"f c #519D0F",
"g c #599B0F",
"h c #468F10",
"j c #4C8E11",
"k c #479010",
"l c #4B9610",
"z c #4E9A11",
"x c #549611",
"c c #599411",
"v c #529D12",
"b c #5B9E14",
"n c #6F8414",
"m c #718614",
"M c #7B8316",
"N c #768D17",
"B c #7C8F17",
"V c #798F19",
"C c #799218",
"Z c #4FA10E",
"A c #52A30F",
"S c #53A412",
"D c #5BA412",
"F c #56A913",
"G c #5CAB15",
"H c #61A413",
"J c #60AB18",
"K c #818616",
"L c #818917",
"P c #838C19",
"I c #809018",
"U c #8D9324",
"Y c #929427",
"T c #9B9C27",
"R c #9A9B2A",
"E c #A09827",
"W c #AD982E",
"Q c #B59C32",
"! c #9CA629",
"~ c #B4A132",
"^ c #CE8C32",
"/ c #D18731",
"( c #D18D34",
") c #DA8C36",
"_ c #D69036",
"` c #D89137",
"' c #D99138",
"] c #FC9C48",
"[ c #F2A246",
"{ c #F7A048",
"} c #FDA34B",
/* pixels */
"aSilzSzaaFOXXXXXXXXXXX$paaFaizSa",
"SwazkeyFSy-ooooooooooo#SySezFywS",
"zySwwSFa=2ooooooooooooX..2.2%Fay",
"pFavzpyz-ooooooooooooooooooo&iSl",
"azASvwiaK,,,,,,,)]]]/,)]Tdccxyla",
"SirzzFZkP<><<<<<']}}(<'}RyFwaSyS",
"pFzyaiM::<_{^<`{}}}}^<'}{[[[UFiz",
"fyaFazP<<<'}^<'}}}}}^<'}}}}}RaFa",
"aSpSAlP<<<'}^<<1'}}}{{(1'}}}}[!a",
"lyFwyAM<<<'}^<<<'}}}}}(<`}}}}}Yz",
"SwSpwFM<<<<1`{{{}}}}(1<<<111IJFe",
"fhwzzfL<<<<<'}}}}}}}(<<<<<<<Nrza",
"lSyzAzygxbW{}}}}}}}}{{{{{{TxgykS",
"yaFSAyziwa~}}}}}}}}}}}}}}}!epZwS",
"zwyFB:::<:<<W16o778111MbGuSyrSyz",
"zFvpK<<<<<<<;>5ooo8<<>VfavyaSAAa",
"~[[[{{^<>1<<>>5ooooo31>>E;_[[[[[",
"Q}}}}}^<>><<1>5ooooo8>>>>>'}}}}}",
"Q{}}}}{{(><<>>5o0]9ooX7o3>11`}}}",
"~}}}}}}}(><>>15oq}9ooooo41>>`}}}",
"Q}}}}}Rg-oX7oXooo7oooooo$jK<<1Bg",
"Q}}}}}YD-ooooooooooooooo*yP<<<mz",
"DjDxuJ=.XoooooooooooooooX.3<><nS",
"aSyzvp-ooooooooooooooooooo4<<>Na",
"pSpp;2Xooooooooooooooooooo4>1<Cp",
"zyiaOooooooooooooooooooooo4>>>mv",
"yAP:<,,,5ooooo@HH +ooooooo41<<Nr",
"ziM<<<<<5ooooo$pZe-ooooooo4><<mf",
"zyK<<<<<,,MdcxDieFSxcstcxHgxxprv",
"pFP<<<<<<<CwyShSZeFewSFallFyrSFp",
"FyyjK<<<<<::NaeFFwazlyiFFyvairhS",
"azSzK<<<<<<<NeZaavezaSzaavrzfSla"
};
