/* XPM */
static char *f81abf9f36794f10e59ff5525c8096f24j4UEzLU3PHyoert[] = {
/* columns rows colors chars-per-pixel */
"32 32 41 1 ",
"  c #F23929",
". c #3F8616",
"X c #438B18",
"o c #58A821",
"O c #4F9B1B",
"+ c #A87B25",
"@ c #509A1E",
"# c #AB7B27",
"$ c #FBA353",
"% c #55A41F",
"& c #4C961A",
"* c #F79F50",
"= c #58971C",
"- c #B07D29",
"; c #529E1E",
": c #D8913F",
"> c #479119",
", c #EC3D28",
"< c #CF8C3A",
"1 c #AF7627",
"2 c #C95F26",
"3 c #5FA521",
"4 c #F0A24E",
"5 c #AB661F",
"6 c #9B9C30",
"7 c #748A1E",
"8 c #E93F26",
"9 c #D45627",
"0 c #976E1D",
"q c #82861F",
"w c #858D23",
"e c #7C821E",
"r c #4D8C19",
"t c #7C9021",
"y c #AD9835",
"u c #F2402B",
"i c #F66D3B",
"p c #B59E39",
"a c #A55C1C",
"s c #D98C3E",
"d c #3F8B21",
/* pixels */
"O%@>OoOO&0,,,,,,,,,,,aoOO@%@&>%O",
"%.Xo@.%X%0           5X%oX.>@O.%",
"XOo088888,            85Oo%..%X@",
"&%>0                   5@X&@;Oo&",
"O&X====6*s1<***s1111111qO>.;%%@O",
"%X%O.oX6$:#<$$*:#####+#w>;o@@.>%",
"@>ow444*$:#<$$$$*:#<*:#++e>OX@o&",
"OoO6$$$$$:#<$$$$$:#<$:###w@OoOX;",
"O64$$$$:-<**$$$:-##<$:###w&%%&%O",
"@6$$$$$:#<$$$$$:###<$:###e%X.oX&",
".o3t---###-<$$$$***:-####eo.&%.%",
"O@.7#######<$$$$$$$:#####q;@@.>;",
"%>X==6******$$$$$$$$*y3==X@%@X%&",
"%.;&.6$$$$$$$$$$$$$$$pO.>@X%%oOX",
"@X%.X%r33e---2uu 9-y##+#+++toX.@",
"O%%%OX;O;t+##2   9+5#######q&;o@",
"44444:56++-2     9++##-+#<**444p",
"$$$$$:+#+++2     9+-##++#<$$$$$p",
"$$$:--+2 u,  i*i 9++##+<**$$$$*p",
"$$$:++-2     i$i 9-++#+<$$$$$$$p",
"=t-##qr0      u   , u, 5=6$$$$$p",
"@7###wX0               536$$$$$p",
"%7#+#28,               ,853r=3r3",
"O7+##2                   5&;@X%O",
"&t#-+2                   ,85&&%&",
";7+++2                     aO>X@",
".7##-2       ae330     9111#+w%X",
";7##+2       5.;&0     9#####e>@",
";.&===3==r===%o.>3===e11#####qX@",
"&o%.Xo&&Oo%..o.;%>%X.t#######wo&",
"%>.>O;Xoo>X&@O.oo.O7++#####qrXXo",
"O&%;@.;OO@%O@.;OO;.7#######q@%@O"
};
