/* XPM */
static char *_59d65ce8a6a4e9aae6cf5b567dcf67cbNLGcXq4utVgRIRg[] = {
/* columns rows colors chars-per-pixel */
"32 32 79 1 ",
"  c #F53A21",
". c #F54023",
"X c #F7542C",
"o c #3D850B",
"O c #3E880D",
"+ c #40870C",
"@ c #428B0D",
"# c #4D8B0E",
"$ c #46910D",
"% c #4A960C",
"& c #4D9B0D",
"* c #509E0E",
"= c #458E10",
"- c #479010",
"; c #4B9510",
": c #4E9A11",
"> c #519D12",
", c #599C13",
"< c #708E1D",
"1 c #74941C",
"2 c #77981E",
"3 c #7A9B1E",
"4 c #4FA10D",
"5 c #52A30F",
"6 c #4FA010",
"7 c #53A412",
"8 c #56A514",
"9 c #54A714",
"0 c #57A714",
"q c #56A615",
"w c #5FA715",
"e c #55A811",
"r c #55A911",
"t c #57AB11",
"y c #57AB12",
"u c #57AC12",
"i c #55A814",
"p c #59AC13",
"a c #58AA15",
"s c #58AC14",
"d c #78A01F",
"f c #7EA11F",
"g c #779C20",
"h c #7B9B20",
"j c #7D9E21",
"k c #829B23",
"l c #85A323",
"z c #80A722",
"x c #C59939",
"c c #C89D3A",
"v c #C89D3B",
"b c #CE9A3D",
"n c #D09E3D",
"m c #D19F3D",
"M c #D19D3E",
"N c #D1A03E",
"B c #D2A03E",
"V c #D2A13F",
"C c #FB8542",
"Z c #F19D49",
"A c #F29F49",
"S c #F49E4A",
"D c #F59F4A",
"F c #FC984B",
"G c #FA9F4C",
"H c #FB9E4D",
"J c #FD9F4E",
"K c #FDA052",
"L c #FCA155",
"P c #FDA559",
"I c #FDB577",
"U c #FDB77A",
"Y c #FDBA7F",
"T c #FCCABF",
"R c #FCCDC7",
"E c #FEE4CD",
"W c #FEE7D2",
"Q c #FEF9F3",
"! c white",
/* pixels */
"&7@:>9:%%0@;79:%&7+%&i:%*%9%%>i%",
"9o&:$+@r9@5%@++yyO&&@o=7@i@&r@O>",
":@ioo7i&;-rOO83JHHBoo8i$%&+i*a*@",
"$r*&:%@>&7*>*@1JJJm>>%+77@a5:%>%",
"&:95>o$>%775gZDJJJHZvO@>*&:>>+;>",
"5#+::r4$7;@:3JJJJJJJm84@%@ro%7@9",
"&r&@>@@:&i3ZDJJJJJJJGZx79@7$@r@&",
"&@%9*:9&&$2JJJJJJJJJJJB&&>@>:*u%",
"&9%>7$9%*72JJJIQR.XJJJB&>&75>;r&",
":@rO$4+9>@zJJJU!R XJJJb5@7@%u;@>",
"9o6%Or@>3DDJIQEPKFC.XJGZv:O8*aiO",
"*=o>>&&&3JJJU!WJJJC XJJJm@&7>+&:",
";>+>5>$&3JJJU!WJJJC XJJJB&::>@@5",
"@&r95+&%1JJJU!WJJJC XJJJb@ro%7O8",
"7o+i>@9@jJJJU!WJJJC XJJJB@5$@i@:",
"&97$%r&>fJJJU!WJJJC XJJJB7@%5&8&",
",yu%%>7*jJJJU!WJJJC XJJJbr$%57&*",
"@a$:s-+:<JJJU!WJJJC XJJJmO=8:-7o",
"%&+75i:@2JJJU!WJJJC XJJJb;75r+$%",
"&$:7&@&>3JJJU!WJJJC XJJJm%O:7:$:",
"%5&::o@*2JJJU!WJJJC XJJJB$O>>&&&",
":@rO%7+ilJJJU!WJJJC XJJHB@7$o7@:",
"7@5$@9@79#kHJPYQT.XFFJbw,-i@$5@5",
"%7+&>%7&%71JJJU!R XJJJB$%7%7&=7%",
"%r%&>&O&&i2JJJKPLFFJJJB&&@%>%&9%",
">@$&@:r&>@1JJJJJJJJJJJb:&i&@&@@:",
"+5r::O@5@58,kJJJJJJJmw5#7@+>&r5O",
">$o:55:&&@o>3JJJJJJJmo@>%*r5:o$>",
":@%&>&r&:+%*>,lJJJB,,%O>&s5&>%@:",
"%97oO8@:*a7O+i1JJJBO+9r*;;9@o79&",
"r@O-&:ouu$@=>&or8+>&$+$ra+::@o@r",
"&:r::O6&%:9*:+8%&7+:*i:&%8+:*9:&"
};
