/* XPM */
static char *b08f0b18aa004479975104bd8d59a9afi4KOOZc14vUXrwqF[] = {
/* columns rows colors chars-per-pixel */
"32 32 72 1 ",
"  c #397F09",
". c #3E850B",
"X c #3F880B",
"o c #40870C",
"O c #438C0D",
"+ c #46910D",
"@ c #4A960C",
"# c #4D9B0D",
"$ c #509E0E",
"% c #458E10",
"& c #568A14",
"* c #598D16",
"= c #479010",
"- c #4B9511",
"; c #4E9A11",
": c #4F9C10",
"> c #519715",
", c #5C9116",
"< c #509C11",
"1 c #519E10",
"2 c #529E12",
"3 c #509B14",
"4 c #539F15",
"5 c #519C16",
"6 c #5E9218",
"7 c #549B1A",
"8 c #629B17",
"9 c #649B18",
"0 c #639C19",
"q c #4FA10D",
"w c #4FA10E",
"e c #50A20E",
"r c #54A20E",
"t c #51A40F",
"y c #55A60F",
"u c #4FA010",
"i c #4FA112",
"p c #51A311",
"a c #54A310",
"s c #53A413",
"d c #52A513",
"f c #55A710",
"g c #54A712",
"h c #53A015",
"j c #55A316",
"k c #54A714",
"l c #57A714",
"z c #54A911",
"x c #54A813",
"c c #56A913",
"v c #57AB12",
"b c #55A814",
"n c #57AC16",
"m c #5EAA13",
"M c #58AA15",
"N c #59AC14",
"B c #5CAA1D",
"V c #66A316",
"C c #67A41A",
"Z c #69A51A",
"A c #69A61A",
"S c #58982A",
"D c #65AD2D",
"F c #68AC35",
"G c #E59D46",
"H c #E79D46",
"J c #E89E47",
"K c #F59E4B",
"L c #FD9F4E",
"P c #E9A046",
"I c #EAF2E3",
"U c white",
/* pixels */
"@sO;1s;#@kO;#g#@#sX@$g;@1@g@O1g$",
"gX#;%oOxsO1;%oOVm.##%o%pOsO$xOo1",
";Ok..kb#<%ko s5JL*s..1M+@#Og$k#O",
"@x$#;@.1#s$$$@OHLA#p$@o4gOks;-1;",
"#1rg5O+##1gs1.+JL9gg;.O1$##5<O;#",
"gOo<#geO$-O##yeJL&.;$geO@OgO@pOs",
"@g#oeOO<#MpO#OOJLA#O#OOskOeOobO$",
"1O@k$;k##+@j##xJL*@s$;g@#<O11$l@",
"@g@51-j##s@r1%4JL9o;ep;e<#1y1-g#",
";Oko+eog$OM.OeOJL&#;OOOeOj%;k-Op",
"gos@.kO1gOg@.goJL,k..1s#@#op$Mpo",
"1O.$1###$-OM<e#HLA1;1@O5sO#g1O@;",
"-1O$p;O$;$+:g1OJL0gg#O@$##;;1O=$",
"O<xseO1+O#srp.#JL*.;$gw%#Obo@pog",
";o%x1OkO;OOk<%pIUD--@OOpgOeOok%;",
"#g:@@x#1e17;@j5IUSS7;41##1O#p$e#",
"yVM@@1g$$#B><77IUF<>>B$@@k+@ey#$",
"Xx+;l%O;oso<kOOIUS%k1OpO;O=k;=s.",
"@#ogpg<.@$.g$MpJLCk<g.#@O-p#pO@@",
"#+#s1o;1$O<s1O1JL8O1x;O#;-O;s;O;",
"@w#:1.%$@##51.%JL* s<;##$+.;#$#@",
":Ox.@pobeOg.@p.JL*p@.gO1bOg@.bO;",
"kOw+obO1kOe+ogOJL6MoOyOb1%koOeOg",
"#kO#1@p##jO#p#gJLV+j#O4O#s@j1Op#",
"@g@@p@O##k;@p@OJL*@$@@k##O@1@@x@",
";O+#O;s##OO#O;sJLZ;O$OO;#g;O#OO<",
"Oeg;;.OsOeg#;.oJL*.;$geOeO.<1xeO",
"#+.<rs##$+.5gg1JL9gs<.+<#$rg;.+<",
"1o@:1$x#pO@#:uxGLZ1<;@o1#Me#;@O;",
"@kp..sO;#M4.OsOPK&pOopM#;-kO.px@",
"bOX+@:.bx+O%:#.Mx.#<=O+xkO#<OO%x",
"#;xu-Ou#@:sw-Op@#4.;$g;##1.<$g;@"
};
