/* XPM */
static char *result[] = {
/* columns rows colors chars-per-pixel */
"32 32 149 2 ",
"   c black",
".  c #0F0904",
"X  c #390D07",
"o  c #4F790B",
"O  c #5A7C0E",
"+  c #6C7714",
"@  c #E9371F",
"#  c #ED3F1F",
"$  c #EF3D20",
"%  c #F53B22",
"&  c #AA5F19",
"*  c #BF5319",
"=  c #B55D18",
"-  c #836813",
";  c #9D6516",
":  c #887212",
">  c #937317",
",  c #A86D17",
"<  c #A56C18",
"1  c #B4631A",
"2  c #B8641D",
"3  c #BD773A",
"4  c #C74D1B",
"5  c #DA461C",
"6  c #C6531A",
"7  c #CC531C",
"8  c #E1441E",
"9  c #F54224",
"0  c #F64A27",
"q  c #F5442C",
"w  c #F7552D",
"e  c #D6642B",
"r  c #C67A2D",
"t  c #CA6834",
"y  c #F76031",
"u  c #F96C3B",
"i  c #E2773B",
"p  c #F97239",
"a  c #FA7A3D",
"s  c #F6614D",
"d  c #F87B4C",
"f  c #F66754",
"g  c #F76C59",
"h  c #F87957",
"j  c #F77462",
"k  c #3D850B",
"l  c #3E880D",
"z  c #41860C",
"x  c #438B0D",
"c  c #46920D",
"v  c #4A950C",
"b  c #4D9B0D",
"n  c #52940F",
"m  c #519D0E",
"M  c #468F10",
"N  c #578A14",
"B  c #479010",
"V  c #4C9710",
"C  c #4E9A11",
"Z  c #549615",
"A  c #599511",
"S  c #529D12",
"D  c #5C9A13",
"F  c #678B14",
"G  c #6C8E1C",
"H  c #7A8313",
"J  c #7A8715",
"K  c #659A16",
"L  c #729818",
"P  c #4FA10C",
"I  c #52A40F",
"U  c #53A512",
"Y  c #56A914",
"T  c #5AAC13",
"R  c #56A119",
"E  c #60A314",
"W  c #67A118",
"Q  c #79A11E",
"!  c #5DA522",
"~  c #7CA023",
"^  c #7FA825",
"/  c #72B73B",
"(  c #75B642",
")  c #7AAE55",
"_  c #7CB253",
"`  c #828315",
"'  c #93841C",
"]  c #898E21",
"[  c #819020",
"{  c #869A22",
"}  c #8F9B29",
"|  c #AF8626",
" . c #A89B2F",
".. c #B99736",
"X. c #B59C34",
"o. c #BB9C36",
"O. c #85A423",
"+. c #8FA226",
"@. c #CE973C",
"#. c #D29E3D",
"$. c #FA803F",
"%. c #B88F5B",
"&. c #83BA57",
"*. c #8AB869",
"=. c #DE8C44",
"-. c #C7885D",
";. c #FB8642",
":. c #FA8A44",
">. c #EB9E46",
",. c #F49245",
"<. c #FC9349",
"1. c #F49E4A",
"2. c #FD9E4E",
"3. c #DAA140",
"4. c #FDA355",
"5. c #FDA559",
"6. c #F88A7C",
"7. c #FDAD68",
"8. c #FDB577",
"9. c #FDB87B",
"0. c #87C159",
"q. c #92C26A",
"w. c #F99689",
"e. c #FA9F91",
"r. c #FDBD85",
"t. c #FBBEB5",
"y. c #B5C99A",
"u. c #B0D295",
"i. c #FDC595",
"p. c #FDD1AA",
"a. c #FBC3BC",
"s. c #FCCEC7",
"d. c #FCD0CA",
"f. c #FEDFCD",
"g. c #D3E4C6",
"h. c #FDE2C9",
"j. c #FEE7D2",
"k. c #FEE8D4",
"l. c #FCE1DD",
"z. c #FDE6E3",
"x. c #FEEEEC",
"c. c #EFF6EA",
"v. c #FEF1E5",
"b. c #F2F7ED",
"n. c #FDF2EC",
"m. c #F2F8EE",
"M. c #FEF2F1",
"N. c #FEFAF6",
"B. c #FFFEFE",
/* pixels */
"b U x V m U K 2.2.O.M  .2.2.2.2.K R ..2.o.I S b m v Y v v v Y b ",
"U k b C M z N 2.2.#.#.>.2.2.2.2.3.@.>.2...z x I x Y x S Y x k S ",
"C x U z o ` ' ;.$.$.$.$.a a ;.a $.$.$.$.r ` J v v b x I S T I z ",
"v Y m A > % % % % % % % % % % % % % % % % % 8 D D x Y U C c S V ",
"b C 1 # $ % % % % % % % 9 % @ # % % % % % % % % % H n S C x V b ",
"I c O H < % $ % % % % w ;.t X X i $.w % % % % % % 5 7 - b U x U ",
"b U b x J * 4 % % w w a 2.3     >.2.p w 0 % % w w 9 % ; x Y x C ",
"C x v Y m A L % 9 :.2.2.2.3 . . =.2.2.2.a % 9 2.2.w % < C b Y b ",
"b P b U +.1.1.2.2.2.2.2.2.2.2.2.2.2.2.2.a % 0 2.2.w % , A n I b ",
"C x Y k n Q [ 2.2.2.2.2.2.2.2.2.2.2.2.2.<.;.:.2.2.w % 8 7 & x m ",
"U k U c N O.] $.$.$.a $.$.:.2.2.2.2.2.2.4.2.2.2.2.w % % % 7 I z ",
"S M k C } 2.<.% % % % % 9 w 2.2.2.4.2.2.2.<.2.<.<.w % % % 4 C b ",
"V U x m +.1.,.% % 9 % u 2.2.2.2.2.2.2.2.a % % % % % % % % 4 M m ",
"x b Y I E G { ;.;.;.;.:.2.4.2.2.2.2.2.2.a % % % % % % % % 7 z Y ",
"C l l Y S x K $.$.a $.7.r.8.2.2.2.2.<.$.d j g % % % % % % 7 x b ",
"C Y U c v E F % % q q e.N.h.2.2.5.5.u 0 6.B.z.q q % % % % 7 U b ",
"U T T c : % % % % s.B.p.5.4.4.4.n.B.N.N.N.N.B.B.B.g % % % 7 m m ",
"x Y B C ' % 9 :.;.f.B.v.j.j.j.j.N.B.p.8.8.8.r.B.B.g % % % 4 I k ",
"c b F O.| w y 2.2.p.h.h.h.h.f.h.h.h.9.2.2.2.7.B.B.g % % % 4 c c ",
"C c X.1.1.2.2.4.2.2.2.2.2.2.2.2.2.2.2.2.4.5.7.M.M.f % % % 7 x m ",
"b P b C +.1.1.1.1.2.2.2.2.2.4.4.5.5.5.4.i.B.z.% % % % % # 6 b v ",
"C x Y k Z W G ^ ~ e w w w h j.k.j.j.k.k.v.B.z.% % % % 1 + L x b ",
"Y x P c l Y l _ &.h j j j w.B.B.B.B.B.B.B.B.x.j j j j %._ ( x U ",
"b R x b R R ( B.B.B.B.B.B.B.B.B.B.B.B.B.B.B.B.B.B.B.B.B.B.g.! R ",
"v I V v q.B.B.B.B.B.B.B.B.B.B.B.B.B.B.B.B.B.B.B.B.B.B.B.B.B.B.B.",
"S x c b *.B.B.B.B.B.B.B.N.B.B.N.N.N.B.B.B.N.B.N.B.B.B.B.B.B.B.B.",
"x P / &.u.B.B.B.B.B.B.l.a.a.a.a.s.t.t.a.a.a.a.a.a.x.B.B.B.B.B.B.",
"b c y.M.M.M.M.M.M.M.M.w.% % % % % % % % % % % % % a.M.M.M.M.M.n.",
"C M = % % % % % % % % % % % q q % q q % q q q % % % % % % % % $ ",
"C Y 2 % % % % % % % % q % s d.d.d.d.d.d.d.d.t.% % $ % % % % % % ",
"0.) -.j j j j j j j j j j w.B.B.B.B.B.B.B.B.M.j j j j j j j j j ",
"b.b.m.m.m.m.m.m.b.b.m.m.m.b.m.b.b.m.b.m.b.b.b.m.m.m.b.m.m.m.m.c."
};
