/* XPM */
static char *result[] = {
/* columns rows colors chars-per-pixel */
"32 32 137 2 ",
"   c #240100",
".  c #2D0300",
"X  c #330300",
"o  c #3A0600",
"O  c #340D00",
"+  c #3D0C00",
"@  c #351100",
"#  c #3B1200",
"$  c #3D1A00",
"%  c #440D00",
"&  c #4B0E00",
"*  c #441200",
"=  c #4B1400",
"-  c #441B02",
";  c #4D1B03",
":  c #511400",
">  c #531B01",
",  c #5B1B03",
"<  c #541D08",
"1  c #5F1E0A",
"2  c #462106",
"3  c #5C2205",
"4  c #53240D",
"5  c #5E260D",
"6  c #5F2F19",
"7  c #5F381B",
"8  c #63250C",
"9  c #68210D",
"0  c #642E12",
"q  c #633117",
"w  c #6A3315",
"e  c #643916",
"r  c #65321B",
"t  c #6B331A",
"y  c #633C1B",
"u  c #6F3B1D",
"i  c #783616",
"p  c #733619",
"a  c #723B1D",
"s  c #78381C",
"d  c #653622",
"f  c #633B23",
"g  c #6B3B25",
"h  c #743D21",
"j  c #7E3E25",
"k  c #713E29",
"l  c #68401D",
"z  c #7F401F",
"x  c #654121",
"c  c #6C4124",
"v  c #754226",
"b  c #7C4425",
"n  c #75452B",
"m  c #7C452B",
"M  c #714C2F",
"N  c #7D4A2F",
"B  c #7D4B32",
"V  c #7F513A",
"C  c #803F23",
"Z  c #85421F",
"A  c #8D431C",
"S  c #92471F",
"D  c #97481F",
"F  c #834424",
"G  c #8B4624",
"H  c #854925",
"J  c #8D4A26",
"K  c #844729",
"L  c #8D442C",
"P  c #854A2C",
"I  c #8D4C2B",
"U  c #934723",
"Y  c #934B25",
"T  c #9A4C26",
"R  c #91472D",
"E  c #924C2A",
"W  c #9A4E2A",
"Q  c #8C502A",
"!  c #92522B",
"~  c #9A522B",
"^  c #8E4532",
"/  c #854E33",
"(  c #8B4E32",
")  c #804D38",
"_  c #924C33",
"`  c #904F3B",
"'  c #865034",
"]  c #8B5134",
"[  c #84523A",
"{  c #8A533A",
"}  c #8F5A3B",
"|  c #935233",
" . c #985037",
".. c #945934",
"X. c #94533B",
"o. c #9B553C",
"O. c #935B3C",
"+. c #9F5D3B",
"@. c #A25D3F",
"#. c #9E633E",
"$. c #A1663E",
"%. c #8C5840",
"&. c #965D40",
"*. c #9C5C45",
"=. c #A25C43",
"-. c #A95F42",
";. c #9C6343",
":. c #966048",
">. c #9C664B",
",. c #9E6A4E",
"<. c #9C6B55",
"1. c #A56345",
"2. c #A96342",
"3. c #A4654C",
"4. c #AB644B",
"5. c #A5694B",
"6. c #AA694B",
"7. c #AF6751",
"8. c #A36E51",
"9. c #A96B54",
"0. c #A16F58",
"q. c #AE6F58",
"w. c #B56D55",
"e. c #AC7255",
"r. c #A1715B",
"t. c #AA7058",
"y. c #B07458",
"u. c #B47A5C",
"i. c #BB7B5F",
"p. c #AB7863",
"a. c #AB7C68",
"s. c #B47C63",
"d. c #BF7E60",
"f. c #B68064",
"g. c #B98164",
"h. c #B4816A",
"j. c #BB836A",
/* pixels */
"I E E I E I E E E E E | R J 1.F * m { I E T W T R W _ E E E E Y ",
"_ E E E E E E E E E E E R J 2.F & N { E E Y W T T E E E E W Y Y ",
"E E E E E Y E E E I E W E J 2.F = m X.I E T T T R R W _ ! Y ! Y ",
"E E J E E E E E E Y E ! Y J 2.Z = m | I E Y T T W W E E ! ! Y T ",
"I Y E Y J Y I Y ! E E E Y U $.Z & m | I E Y Y Y W E E E Y Y ! Y ",
"Y Y ! I I ! E Q I I I ! E Y $.F & b ( I E Y W W E E ( _ W E T Y ",
"Q Q I I I I Q Q Q Q I ] I J 1.F % m { I E J _ I _ ( ( ( Q E Y ! ",
"( Q ] I ] ] / ' ] P ] ] I P 1.b * m { ( I I _ I { ] { ] ] ] I ! ",
"P ] K P { / B B { n / / { P O.h = k { / ( P K / / ) ) ) { ( / ( ",
"= > ; = * ; 4 4 ; - ; * = % 3 = o ; < = = > ; ; 4 4 - + = ; : : ",
"w 0 0 0 r r 6 . * r g r t 0 a q r r t w q t 6 2 . 4 f d t t p s ",
"d.u.s.f.s.h.p.4 g r.s.s.j.s.i.t.s.s.g.g.u.g.f.<.* [ a.h.s.s.i.d.",
"F H ] ( m / ,.< * ) / m P P H I ] K P H z Q #.} + 6 N N / ] J F ",
"G J I K K ( q.5 8 %.( P I E R E L J E I Z J ..#.; v ' ' I E E U ",
"W W J G | _ 5.= , P I _ I E Y U G W ~ ~ ~ Y ! #.o 0 ] ] J A S T ",
"A W E G _ H 5.8 8 ( ( ..J E Y T W ~ Y A Y J Y $.: w P Q ! T D T ",
"! F Q Q Q b e.> 3 / I ] H | ! I E ! ! Y Y J ! #.- e ] ] I Y T D ",
"E J | E P K q., , ( ( _ I | E R H Q J Y Q Q ..5.* w ' ' J I T T ",
"E E  .R R _ 7., 9 ` ^ ^ L L J ` ] Q Q J Q H Q ;.* r ' { P J Y Y ",
"E _ _ ( ( X.3.0 1 ( ` %.*._ L ( ] ] / Q ] ] } ,.- r [ } { ] ! E ",
"e l y e y x M $ - f f 7 c f c n c v a u a a g v # 4 f k h p p i ",
"O # # @ @ # $   @ $ @   O . # . . * * % % + o + X + + + + % & & ",
"1.6.3.3.3.3.3.3.*.3.t.q.w.3.*.t 4 B >.:.>.5.8.8.r.<.<.<.<.5.4.4.",
"=.-.=.2.1.=.=.4.1.=.=.o.=.4.w.b & B 8.>.;.;.;.&.>.:.&.>.3.;.@.+.",
"H H H H H H H Z H b H H H b *.s + v P H J H I G P P P P K H L G ",
"Q J Q Q J Q Q Q Q Q Q Q H H $.b * v ' I I J Y J I I ( I E E Y Y ",
"Q J Q J Y Y J Q Y Y E R I J 1.b = b ] I E Y W Y E R I I E Y Y Y ",
"J J Y Y J S S S Y U Y T U G 2.C % b Q J J Y Y U U E E J J Y S D ",
"E Y E Y Y Y T Y U U U T R L -.C % n ] J Y Y Y U E J E I E Y Y Y ",
"R E R R ! T T U U Y W R R ^ -.C * n ] P I U T Y R E E E I Y Y Y ",
"I I I I I R R U E R R _ I L =.m * n ' P I E E U Y R I J I J J Y ",
"( ( ( I I J E E E J R I ( K >.m * M [ P I E W U E R _ E I I Y J "
};
