/* XPM */
static char *_1960be8c4cf471cab495901dae395011TmgKLnNFd77D6cZ[] = {
/* columns rows colors chars-per-pixel */
"32 32 162 2 ",
"   c #4B651F",
".  c #53651C",
"X  c #5A651D",
"o  c #5E6F1F",
"O  c #656C1F",
"+  c #746B1D",
"@  c #7A6C1C",
"#  c #735A20",
"$  c #446820",
"%  c #566A23",
"&  c #596E25",
"*  c #4E7120",
"=  c #527423",
"-  c #5D7527",
";  c #587825",
":  c #6F6F29",
">  c #627021",
",  c #617A29",
"<  c #797420",
"1  c #777B2D",
"2  c #B53F1E",
"3  c #F22317",
"4  c #F22719",
"5  c #FE251A",
"6  c #F42D1C",
"7  c #FD2C1E",
"8  c #E83E1E",
"9  c #F4301D",
"0  c #FA321F",
"q  c #F3381F",
"w  c #FF2C21",
"e  c #EB3D21",
"r  c #F73721",
"t  c #FD3321",
"y  c #F43B21",
"u  c #FB3B23",
"i  c #FF3E28",
"p  c #98451C",
"a  c #9F5A1F",
"s  c #B44A1F",
"d  c #8D6B0F",
"f  c #8E7916",
"g  c #8D721E",
"h  c #9A7317",
"j  c #927B17",
"k  c #91741E",
"l  c #9D741A",
"z  c #9D7B1B",
"x  c #A2761B",
"c  c #A6791D",
"v  c #A97A1F",
"b  c #9D5120",
"n  c #B44B20",
"m  c #BC4C20",
"M  c #9C662A",
"N  c #8F7523",
"B  c #997D33",
"V  c #A67C21",
"C  c #AC7B21",
"Z  c #A47E2D",
"A  c #B47722",
"S  c #B87321",
"D  c #B27E24",
"F  c #C44C1B",
"G  c #D1531E",
"H  c #DD4C21",
"J  c #CE5622",
"K  c #CD5E20",
"L  c #D95522",
"P  c #D25922",
"I  c #DA5F28",
"U  c #E64620",
"Y  c #EA4321",
"T  c #E24C21",
"R  c #F54425",
"E  c #FF4025",
"W  c #F34B26",
"Q  c #E35222",
"!  c #E95226",
"~  c #ED5729",
"^  c #F6532B",
"/  c #FA552D",
"(  c #F75C2E",
")  c #C26720",
"_  c #C96020",
"`  c #DD7C35",
"'  c #E6652E",
"]  c #F1632F",
"[  c #F66331",
"{  c #F96532",
"}  c #F76E35",
"|  c #F96A35",
" . c #E07D36",
".. c #FF7A3E",
"X. c #448426",
"o. c #478728",
"O. c #498B28",
"+. c #4E912A",
"@. c #53962C",
"#. c #559A2D",
"$. c #57A02F",
"%. c #58A02E",
"&. c #5BA631",
"*. c #94821B",
"=. c #AE8A1F",
"-. c #B5841F",
";. c #9E8020",
":. c #978B20",
">. c #998B20",
",. c #9B8335",
"<. c #9F8938",
"1. c #A38220",
"2. c #AB8323",
"3. c #B48122",
"4. c #BA8524",
"5. c #BC8B23",
"6. c #B38128",
"7. c #BC8329",
"8. c #B68B2A",
"9. c #B58A3B",
"0. c #C58E24",
"q. c #C4872D",
"w. c #C48A2E",
"e. c #C98A2F",
"r. c #CA9126",
"t. c #C1912F",
"y. c #CB8B32",
"u. c #D38E35",
"i. c #DC8F38",
"p. c #C49236",
"a. c #CD9235",
"s. c #DA933A",
"d. c #D9993C",
"f. c #F8803C",
"g. c #E2963D",
"h. c #E6983F",
"j. c #FA8A41",
"k. c #EC9B43",
"l. c #F19D45",
"z. c #F39F48",
"x. c #FC9D48",
"c. c #E0A040",
"v. c #EBA646",
"b. c #F3A249",
"n. c #FDA34B",
"m. c #F3A84C",
"M. c #FDAA4E",
"N. c #FEAD4F",
"B. c #FFA750",
"V. c #FFAA52",
"C. c #FFAF51",
"Z. c #FFAB54",
"A. c #FFAD56",
"S. c #FFAE58",
"D. c #FFB452",
"F. c #FFB553",
"G. c #FFB255",
"H. c #FFB259",
"J. c #FFBA59",
"K. c #FFC459",
"L. c #FFC55A",
"P. c #FFCB5D",
/* pixels */
"+.$.O.@.#.$.@.@.O.#.  E e y y y y y r e E ; @.O.#.@.&.#.+.@.&.+.",
"&.X.@.@.O.X.O.&.&.o.; E e y y y r y y e E $ O.$.O.#.O.#.&.O.X.#.",
"@.o.$.X.: <.,.<.M p s R y y y y y y y y y n p M ,.B ,.1 @.&.@.o.",
"+.&.#.#.9.K.N.K...7 u 6 9 t t 6 9 9 6 t t u 5 ..P.Z.K.9.@.+.#.@.",
"- , , - p.m.k.m.` F I | ] G L { | { | Q J ' [ ` p.i.m.p., - - - ",
"F.F.J.F.B.x.B.Z.s.f t.H.v.z 2.C.F.N.G.8.j c.J.a.d y.Z.M.H.F.F.G.",
"l.b.z.z.n.n.l.z.u.l q.B.k.c D n.x.x.n.D x g.B.u.l y.l.l.z.b.k.b.",
"n.n.n.n.n.B.y.l C c q.V.k.x D n.n.n.M.7.h g.Z.y.x C x 7.M.n.n.n.",
"n.n.n.n.n.B.y.x C c q.Z.k.x C n.n.n.M.7.h g.Z.u.x D x 7.B.n.n.n.",
"l.z.z.z.b.M.y.x C v D D w.k.b.n.n.n.n.k.k.y.3.D C C c 7.m.z.z.z.",
"F.F.F.F.V.Z.y.x C C C l 7.Z.V.n.n.n.n.C.H.w.l C C C x w.J.F.D.G.",
", & % - Z u.6.v C C C C D y.y.n.n.n.n.u.y.6.C C C V C N - % - - ",
"+.$.o.#.@ 0.v v c D V x x x c V.M.n.Z.D h c x c C D r.@ #.O.O.#.",
"o.@.$.$.o + k D c C D w.7.C D k.k.g.k.7.c 7.w.3.c k < . O.#.X.&.",
"@.X.X.&.#.O.> 5.C x w.S.l.x C l l x l v l h.H.y.3.X $.O.o.&.O.#.",
"@.&.$.+.+.&.O 5.V x w.V.k.c C D D D C D c g.Z.y.-.O o.@.$.#.#.#.",
"#.&.&.+.O.&.> 5.C x q.B.n.x.x.n.n.x.n.z.n.b.M.y.-.O O.O.&.#.#.#.",
"O.&.+.#.&.O.. 5.;.z w.Z.M.n.M.n.n.M.M.n.n.M.F.p.2.. o.&.@.@.&.X.",
"+.#.X.#.# b m Q L H ! ^ [ m.x.n.n.n.x.z.M.} ^ ! Q F b # #.X.O.@.",
"#.+.@.&.2 i t w w t t 4 R F.M.M.M.B.V.n.H./ 3 9 0 t i n #.+.+.@.",
"O.#.= = b P K P T y y y W d.i.s.i.s.s.i.d.~ t R y H J a % * @.+.",
"#.O.V r.2.z 1.>.K w y t U *.z x x x x l *.H t y w L :.C 0.V +.#.",
"&.O.g C C C C V K y Y t Y A S C C C C S A H t Y e L =.C 2.g O.$.",
"@.$.k 3.V C C C C 1.S t e t y V C C 1.Y t y t _ ;.C v C 3.g $.+.",
"@.#.k 3.C C C C C =.S t y r y x V x =.Y 7 y t P 1.C C C 3.g &.+.",
"#.O.k 3.c C c C C z _ w W x.j.Y Y U 8 f.n.( 7 _ 1.C v V 3.g O.@.",
"X.#.k 3.c C C C A 2.) 7 W K.C.t t y 7 x.P.] 5 _ 1.C v C 3.k %.X.",
"@.@.g C 2.C C C c C ) t R { [ y y y q ( | W 7 K 1.C C C v g +.@.",
"#.X.x 0.C C C C v 1.) t y 6 6 y y y y 6 6 y t K =.A v C r.c X.#.",
"@.&.> + l C C C A 1.) t y y y r y y u y y y t J z v 3.g + > %.#.",
"&.O.X.O.+ 4.V C C 1.) t y y y y y r y y y y t K 1.V 5.+ +.X.O.%.",
"+.@.$.$.+ 4.V V C 1.) t y y r y y y y y y y t K V V 5.+ $.@.@.@."
};
